<svg width="241" height="118" viewBox="0 0 241 118" fill="none" xmlns="http://www.w3.org/2000/svg">
<g clip-path="url(#clip0_102023_2628)">
<path d="M15 60C15 32.3858 37.3858 10 65 10H241V118H15V60Z" fill="#121212"/>
<g opacity="0.4" filter="url(#filter0_f_102023_2628)">
<path d="M48 81C66.2254 81 81 66.2254 81 48C81 29.7746 66.2254 15 48 15C29.7746 15 15 29.7746 15 48C15 66.2254 29.7746 81 48 81Z" fill="#3DD9B3"/>
</g>
<path d="M48 76C66.2254 76 81 61.2254 81 43C81 24.7746 66.2254 10 48 10C29.7746 10 15 24.7746 15 43C15 61.2254 29.7746 76 48 76Z" fill="#3DD9B3"/>
<path d="M60.2007 35.2273C59.654 34.934 58.5073 34.6273 56.9473 35.7207L54.9873 37.1073C54.8407 32.9607 53.0407 31.334 48.6673 31.334H40.6673C36.1073 31.334 34.334 33.1073 34.334 37.6673V48.334C34.334 51.4006 36.0007 54.6673 40.6673 54.6673H48.6673C53.0407 54.6673 54.8407 53.0406 54.9873 48.894L56.9473 50.2806C57.774 50.8673 58.494 51.054 59.0673 51.054C59.5607 51.054 59.9473 50.9073 60.2007 50.774C60.7473 50.494 61.6673 49.734 61.6673 47.8273V38.174C61.6673 36.2673 60.7473 35.5073 60.2007 35.2273ZM46.6673 42.174C45.294 42.174 44.1607 41.054 44.1607 39.6673C44.1607 38.2807 45.294 37.1607 46.6673 37.1607C48.0407 37.1607 49.174 38.2807 49.174 39.6673C49.174 41.054 48.0407 42.174 46.6673 42.174Z" fill="white"/>
<mask id="mask0_102023_2628" style="mask-type:alpha" maskUnits="userSpaceOnUse" x="15" y="32" width="226" height="86">
<rect x="15" y="32" width="226" height="86" fill="#1E293B"/>
</mask>
<g mask="url(#mask0_102023_2628)">
<path d="M15.1325 132.681V114.104C14.3273 105.471 16.2976 88.3453 46.836 86.213C74.8842 84.2546 80.8534 80.3011 95.5529 54.5303C107.653 33.3172 126.126 32.9154 143.043 32.5475C145.259 32.4993 147.449 32.4517 149.594 32.3579C160.963 31.861 198.081 31.8018 223.5 32.0003C252 31.9998 241 29.7098 241 40.5005V224.287C241 235.174 232.146 244 221.225 244H34.775C23.8536 244 15 235.174 15 224.287V132.681H15.1325Z" fill="#1E293B"/>
</g>
</g>
<defs>
<filter id="filter0_f_102023_2628" x="0.875" y="0.875" width="94.25" height="94.25" filterUnits="userSpaceOnUse" color-interpolation-filters="sRGB">
<feFlood flood-opacity="0" result="BackgroundImageFix"/>
<feBlend mode="normal" in="SourceGraphic" in2="BackgroundImageFix" result="shape"/>
<feGaussianBlur stdDeviation="7.0625" result="effect1_foregroundBlur_102023_2628"/>
</filter>
<clipPath id="clip0_102023_2628">
<rect width="241" height="118" fill="white"/>
</clipPath>
</defs>
</svg>
