<svg width="241" height="118" viewBox="0 0 241 118" fill="none" xmlns="http://www.w3.org/2000/svg">
<path d="M15 60C15 32.3858 37.3858 10 65 10H241V118H15V60Z" fill="#121212"/>
<g opacity="0.4" filter="url(#filter0_f_102023_2591)">
<circle cx="48" cy="48" r="33" fill="#FF7474"/>
</g>
<circle cx="48" cy="43" r="33" fill="#FF7474"/>
<path d="M57.9126 32.3794C58.089 32.6566 57.7869 32.9796 57.4665 32.9067V32.9067C56.8398 32.7201 56.1465 32.6267 55.4398 32.6267H51.0984C50.8516 32.6267 50.6193 32.5107 50.471 32.3134L48.9731 30.3201V30.3201C48.7853 30.054 48.9628 29.6667 49.2885 29.6667H52.9598C55.0411 29.6667 56.8745 30.7477 57.9126 32.3794Z" fill="white"/>
<path d="M58.8537 35.7201C58.2803 35.3067 57.627 35.0001 56.9203 34.8267C56.4403 34.6934 55.947 34.6267 55.4403 34.6267H50.4803C49.707 34.6267 49.6537 34.5601 49.2403 34.0134L47.3737 31.5334C46.507 30.3734 45.827 29.6667 43.6537 29.6667H40.5603C37.307 29.6667 34.667 32.3067 34.667 35.5601V50.4401C34.667 53.6934 37.307 56.3334 40.5603 56.3334H55.4403C58.6937 56.3334 61.3337 53.6934 61.3337 50.4401V40.5201C61.3337 38.5334 60.3603 36.7867 58.8537 35.7201ZM51.187 48.7867H44.8003C44.2803 48.7867 43.8803 48.3734 43.8803 47.8534C43.8803 47.3467 44.2803 46.9201 44.8003 46.9201H51.187C51.707 46.9201 52.1203 47.3467 52.1203 47.8534C52.1203 48.3734 51.707 48.7867 51.187 48.7867Z" fill="white"/>
<mask id="mask0_102023_2591" style="mask-type:alpha" maskUnits="userSpaceOnUse" x="15" y="32" width="226" height="86">
<rect x="15" y="32" width="226" height="86" fill="#1E293B"/>
</mask>
<g mask="url(#mask0_102023_2591)">
<path d="M15.1325 132.681V114.104C14.3273 105.471 16.2976 88.3453 46.836 86.213C74.8842 84.2546 80.8534 80.3011 95.5529 54.5303C107.653 33.3172 126.126 32.9154 143.043 32.5475C145.259 32.4993 147.449 32.4517 149.594 32.3579C160.963 31.861 198.081 31.8018 223.5 32.0003C252 31.9998 241 29.7098 241 40.5005V224.287C241 235.174 232.146 244 221.225 244H34.775C23.8536 244 15 235.174 15 224.287V132.681H15.1325Z" fill="#1E293B"/>
</g>
<defs>
<filter id="filter0_f_102023_2591" x="0.875" y="0.875" width="94.25" height="94.25" filterUnits="userSpaceOnUse" color-interpolation-filters="sRGB">
<feFlood flood-opacity="0" result="BackgroundImageFix"/>
<feBlend mode="normal" in="SourceGraphic" in2="BackgroundImageFix" result="shape"/>
<feGaussianBlur stdDeviation="7.0625" result="effect1_foregroundBlur_102023_2591"/>
</filter>
</defs>
</svg>
