<svg width="241" height="118" viewBox="0 0 241 118" fill="none" xmlns="http://www.w3.org/2000/svg">
<path d="M15 60C15 32.3858 37.3858 10 65 10H241V118H15V60Z" fill="#121212"/>
<path d="M60.2002 35.2266C59.6535 34.9333 58.5068 34.6266 56.9468 35.7199L54.9868 37.1066C54.8402 32.9599 53.0402 31.3333 48.6668 31.3333H40.6668C36.1068 31.3333 34.3335 33.1066 34.3335 37.6666V48.3333C34.3335 51.3999 36.0002 54.6666 40.6668 54.6666H48.6668C53.0402 54.6666 54.8402 53.0399 54.9868 48.8933L56.9468 50.2799C57.7735 50.8666 58.4935 51.0533 59.0668 51.0533C59.5602 51.0533 59.9468 50.9066 60.2002 50.7733C60.7468 50.4933 61.6668 49.7333 61.6668 47.8266V38.1733C61.6668 36.2666 60.7468 35.5066 60.2002 35.2266ZM46.6668 42.1733C45.2935 42.1733 44.1602 41.0533 44.1602 39.6666C44.1602 38.2799 45.2935 37.1599 46.6668 37.1599C48.0402 37.1599 49.1735 38.2799 49.1735 39.6666C49.1735 41.0533 48.0402 42.1733 46.6668 42.1733Z" fill="white"/>
<g opacity="0.4" filter="url(#filter0_f_102023_2616)">
<circle cx="48" cy="48" r="33" fill="#56B8FF"/>
</g>
<circle cx="48" cy="43" r="33" fill="#56B8FF"/>
<path d="M40.3311 51.5077C39.287 51.5058 38.2698 51.1826 37.4226 50.5836C36.5754 49.9845 35.9408 49.1398 35.6081 48.1682L35.5614 48.0177C35.412 47.5588 35.3343 47.0803 35.3307 46.5986V37.6732L32.0958 48.2742C31.8978 49.0286 32.0093 49.8291 32.4063 50.5035C32.8033 51.178 33.4541 51.6725 34.2186 51.8808L54.8376 57.3017C55.095 57.3672 55.3524 57.3986 55.6057 57.3986C56.9338 57.3986 58.1473 56.5333 58.4873 55.2582L59.6887 51.5077H40.3311ZM43.9981 37.7622C45.4689 37.7622 46.665 36.588 46.665 35.1441C46.665 33.7001 45.4689 32.5259 43.9981 32.5259C42.5273 32.5259 41.3312 33.7001 41.3312 35.1441C41.3312 36.588 42.5273 37.7622 43.9981 37.7622Z" fill="white"/>
<path d="M60.6658 28.5989H40.6642C39.7804 28.5999 38.9331 28.9451 38.3081 29.5586C37.6832 30.1721 37.3316 31.0039 37.3306 31.8716V46.2716C37.3306 48.0755 38.8267 49.5443 40.6642 49.5443H60.6658C62.5033 49.5443 63.9994 48.0755 63.9994 46.2716V31.8716C63.9994 30.0677 62.5033 28.5989 60.6658 28.5989ZM40.6642 31.2171H60.6658C60.8426 31.2171 61.0122 31.286 61.1372 31.4088C61.2623 31.5315 61.3325 31.698 61.3325 31.8716V41.1648L57.1202 36.3395C56.8975 36.0884 56.6228 35.8867 56.3145 35.7478C56.0061 35.609 55.6712 35.5363 55.332 35.5344C54.9917 35.5362 54.6558 35.611 54.3481 35.7537C54.0403 35.8964 53.7681 36.1035 53.5506 36.3605L48.5982 42.1964L46.9847 40.6163C46.5459 40.1863 45.9512 39.9447 45.3312 39.9447C44.7112 39.9447 44.1165 40.1863 43.6778 40.6163L39.9975 44.2281V31.8716C39.9975 31.698 40.0677 31.5315 40.1927 31.4088C40.3178 31.286 40.4873 31.2171 40.6642 31.2171Z" fill="white"/>
<mask id="mask0_102023_2616" style="mask-type:alpha" maskUnits="userSpaceOnUse" x="15" y="32" width="226" height="86">
<rect x="15" y="32" width="226" height="86" fill="#1E293B"/>
</mask>
<g mask="url(#mask0_102023_2616)">
<path d="M15.1325 132.681V114.104C14.3273 105.471 16.2976 88.3453 46.836 86.213C74.8842 84.2546 80.8534 80.3011 95.5529 54.5303C107.653 33.3172 126.126 32.9154 143.043 32.5475C145.259 32.4993 147.449 32.4517 149.594 32.3579C160.963 31.861 198.081 31.8018 223.5 32.0003C252 31.9998 241 29.7098 241 40.5005V224.287C241 235.174 232.146 244 221.225 244H34.775C23.8536 244 15 235.174 15 224.287V132.681H15.1325Z" fill="#1E293B"/>
</g>
<defs>
<filter id="filter0_f_102023_2616" x="0.875" y="0.875" width="94.25" height="94.25" filterUnits="userSpaceOnUse" color-interpolation-filters="sRGB">
<feFlood flood-opacity="0" result="BackgroundImageFix"/>
<feBlend mode="normal" in="SourceGraphic" in2="BackgroundImageFix" result="shape"/>
<feGaussianBlur stdDeviation="7.0625" result="effect1_foregroundBlur_102023_2616"/>
</filter>
</defs>
</svg>
