<svg width="241" height="118" viewBox="0 0 241 118" fill="none" xmlns="http://www.w3.org/2000/svg">
<path d="M15 60C15 32.3858 37.3858 10 65 10H241V118H15V60Z" fill="#121212"/>
<g opacity="0.4" filter="url(#filter0_f_102023_2604)">
<circle cx="48" cy="48" r="33" fill="#EEA8FD"/>
</g>
<circle cx="48" cy="43" r="33" fill="#EEA8FD"/>
<path d="M62.1782 35.5928C61.2396 32.41 58.5848 29.7553 55.4021 28.8166C52.9821 28.1126 51.3101 28.1713 50.1514 29.0367C48.758 30.078 48.5967 31.9554 48.5967 33.2901V36.9421C48.5967 40.5502 50.2394 42.3835 53.4661 42.3835H57.6755C58.9955 42.3835 60.8876 42.2222 61.9289 40.8288C62.8236 39.6848 62.8969 38.0128 62.1782 35.5928Z" fill="white"/>
<path d="M58.1315 44.9946C57.7502 44.5546 57.1928 44.3053 56.6208 44.3053H51.3701C48.7887 44.3053 46.6913 42.2079 46.6913 39.6265V34.3758C46.6913 33.8038 46.442 33.2464 46.002 32.8651C45.5766 32.4837 44.99 32.3077 44.4326 32.3811C40.9859 32.8211 37.8178 34.7131 35.7498 37.5585C33.6671 40.4185 32.9044 43.9093 33.5644 47.4C34.5178 52.4454 38.5512 56.4788 43.6113 57.4322C44.418 57.5935 45.2246 57.6668 46.0313 57.6668C48.686 57.6668 51.2527 56.8455 53.4381 55.2468C56.2835 53.1787 58.1755 50.0107 58.6155 46.564C58.6889 45.992 58.5129 45.42 58.1315 44.9946Z" fill="white"/>
<mask id="mask0_102023_2604" style="mask-type:alpha" maskUnits="userSpaceOnUse" x="15" y="32" width="226" height="86">
<rect x="15" y="32" width="226" height="86" fill="#1E293B"/>
</mask>
<g mask="url(#mask0_102023_2604)">
<path d="M15.1325 132.681V114.104C14.3273 105.471 16.2976 88.3453 46.836 86.213C74.8842 84.2546 80.8534 80.3011 95.5529 54.5303C107.653 33.3172 126.126 32.9154 143.043 32.5475C145.259 32.4993 147.449 32.4517 149.594 32.3579C160.963 31.861 198.081 31.8018 223.5 32.0003C252 31.9998 241 29.7098 241 40.5005V224.287C241 235.174 232.146 244 221.225 244H34.775C23.8536 244 15 235.174 15 224.287V132.681H15.1325Z" fill="#1E293B"/>
</g>
<defs>
<filter id="filter0_f_102023_2604" x="0.875" y="0.875" width="94.25" height="94.25" filterUnits="userSpaceOnUse" color-interpolation-filters="sRGB">
<feFlood flood-opacity="0" result="BackgroundImageFix"/>
<feBlend mode="normal" in="SourceGraphic" in2="BackgroundImageFix" result="shape"/>
<feGaussianBlur stdDeviation="7.0625" result="effect1_foregroundBlur_102023_2604"/>
</filter>
</defs>
</svg>
